<?xml version="1.0" encoding="UTF-8"?>
<svg version="1.1" viewBox="0 0 24 24" xmlns="http://www.w3.org/2000/svg" xmlns:xlink="http://www.w3.org/1999/xlink">
    <!--Generated by IJSVG (https://github.com/curthard89/IJSVG)-->
    <g fill="none" stroke="#000000" stroke-linejoin="round" stroke-width="1">
        <path d="M9.5,16c1.5,0 0.5,1 3.5,1c3,0 6,-6 6,-10c0,-4 -2.5,-7 -5.5,-7c-3,0 -3,1 -4,1c-1,0 -1,-1 -4,-1c-3,0 -5.5,3 -5.5,7c0,4 3,10 6,10c3,0 2,-1 3.5,-1Z" transform="translate(2.5, 6.5)"></path>
        <path stroke-linecap="round" d="M4,4v-2c0,-1.1 -0.9,-2 -2,-2h-2" transform="translate(8, 3.5)"></path>
        <path d="M0,4.5c2.485,0 4.5,-2.014 4.5,-4.5c-2.485,0 -4.5,2.016 -4.5,4.5Z" transform="translate(14, 0.5)"></path>
    </g>
    <path fill="none" d="M0,0h24v24h-24Z"></path>
</svg>