<?xml version="1.0" encoding="UTF-8"?>
<svg version="1.1" viewBox="0 0 24 24" xmlns="http://www.w3.org/2000/svg" xmlns:xlink="http://www.w3.org/1999/xlink">
    <!--Generated by IJSVG (https://github.com/curthard89/IJSVG)-->
    <g fill="none" stroke="#000000" stroke-linejoin="round" stroke-width="1">
        <path d="M14.536,8.956c1.886,-1.885 -5.186,-8.956 -7.071,-7.07c-1.414,4.95 -4.755,7.532 -7.081,9.903c-0.384,0.392 -0.381,1.02 0.007,1.407l2.828,2.828c0.188,0.188 0.444,0.294 0.711,0.293c0.267,-0.001 0.521,-0.109 0.709,-0.298c2.307,-2.343 4.948,-5.648 9.897,-7.063Z" transform="translate(0.402, 7.189)"></path>
        <path d="M8.475,17.116c0.219,0.522 0.635,1.343 1.061,1.769c1.757,1.756 4.606,1.756 6.363,0c1.204,-1.204 1.361,-2.305 1.35,-2.86c0.67,-0.172 1.309,-0.505 1.833,-1.03c1.562,-1.561 1.562,-4.094 0,-5.656c-0.461,-0.46 -1.009,-0.768 -1.589,-0.957c0.257,-1.404 -0.154,-2.907 -1.24,-3.993c-1.086,-1.085 -2.588,-1.495 -3.992,-1.239c-0.189,-0.579 -0.497,-1.128 -0.957,-1.588c-1.562,-1.562 -4.095,-1.562 -5.657,0c-0.525,0.522 -0.858,1.159 -1.03,1.83c-0.556,-0.012 -1.656,0.146 -2.859,1.35c-1.758,1.757 -1.758,4.605 0,6.364c0.425,0.425 1.245,0.841 1.768,1.061" transform="translate(2.221, 1.151)"></path>
        <path stroke-linecap="round" d="M1.107,4.538c-0.672,-0.501 -1.107,-1.303 -1.107,-2.206c0,-0.983 0.517,-1.847 1.294,-2.332" transform="translate(15.158, 13.865)"></path>
        <path stroke-linecap="round" d="M0,0.186c0.501,0.673 1.303,1.108 2.205,1.108c0.984,0 1.848,-0.517 2.333,-1.294" transform="translate(5.609, 7.573)"></path>
        <path stroke-linecap="round" d="M3.08,0l-3.08,3.07" transform="translate(11.05, 12.72)"></path>
        <path stroke-linecap="round" d="M3.1,0l-3.1,3.06" transform="translate(8.22, 9.9)"></path>
    </g>
    <path fill="none" d="M0,0h24v24h-24Z"></path>
</svg>