<?xml version="1.0" encoding="UTF-8"?>
<svg version="1.1" viewBox="0 0 24 24" xmlns="http://www.w3.org/2000/svg" xmlns:xlink="http://www.w3.org/1999/xlink">
    <!--Generated by IJSVG (https://github.com/curthard89/IJSVG)-->
    <g fill="none" stroke="#000000" stroke-linejoin="round" stroke-width="1">
        <path d="M18.779,7.034l-16.526,12.155c-0.531,0.396 -1.268,0.342 -1.733,-0.124c-0.466,-0.467 -0.52,-1.202 -0.124,-1.733l12.155,-16.527c0.474,-0.637 1.356,-0.805 2.033,-0.387c1.885,1.17 3.412,2.697 4.579,4.578c0.42,0.681 0.255,1.56 -0.384,2.038Z" transform="translate(0.369, 4.052)"></path>
        <path stroke-linecap="round" d="M0,4.62l1.72,-4.62" transform="translate(16.11, 0.59)"></path>
        <path stroke-linecap="round" d="M0,1.77l4.71,-1.77" transform="translate(18.79, 6.13)"></path>
        <path stroke-linecap="round" d="M0,4.41l4.36,-4.41" transform="translate(17.53, 2.1)"></path>
        <path stroke-linecap="round" d="M0,0l3.18,3.18" transform="translate(11.9, 6.44)"></path>
        <path stroke-linecap="round" d="M0,0l3.21,3.19" transform="translate(11.19, 11.39)"></path>
        <path stroke-linecap="round" d="M0,0l1.95,1.96" transform="translate(8.36, 15.63)"></path>
    </g>
    <path fill="none" d="M0,0h24v24h-24Z"></path>
</svg>