<?xml version="1.0" encoding="UTF-8"?>
<svg version="1.1" viewBox="0 0 24 24" xmlns="http://www.w3.org/2000/svg" xmlns:xlink="http://www.w3.org/1999/xlink">
    <!--Generated by IJSVG (https://github.com/curthard89/IJSVG)-->
    <g fill="none" stroke="#000000" stroke-linejoin="round" stroke-width="1">
        <path d="M15.556,1.325c0.817,0.818 1.381,7.127 -2.817,11.325c-4.198,4.198 -9.91,4.231 -9.91,4.231l-2.829,-2.828c0,0 0.089,-5.746 4.243,-9.899c4.154,-4.154 10.496,-3.646 11.313,-2.829Z" transform="translate(6.157, 0.967)"></path>
        <path d="M8.485,2.828l-2.829,5.657l-1.631,-3.731l-4.025,-1.926l5.656,-2.828Z" transform="translate(0.5, 15.021)"></path>
        <path d="M7.512,0c0,0 -0.015,3.188 -4.678,7.85l-2.834,-2.859" transform="translate(12.513, 12.275)"></path>
        <path d="M2.828,7.269l-2.828,-2.828c0,0 0.897,-4.32 6.344,-4.441" transform="translate(3.682, 5.276)"></path>
        <path d="M1.80474,0.390524c0.390524,0.390524 0.390524,1.02369 0,1.41421c-0.390524,0.390524 -1.02369,0.390524 -1.41421,0c-0.390524,-0.390524 -0.390524,-1.02369 0,-1.41421c0.390524,-0.390524 1.02369,-0.390524 1.41421,0" transform="translate(14.9284, 4.70037)"></path>
    </g>
    <path fill="none" d="M0,0h24v24h-24Z"></path>
</svg>